<svg viewBox="0 0 64 64" xml:space="preserve" xmlns="http://www.w3.org/2000/svg" enable-background="new 0 0 64 64"><path d="M59 38.685V32a2.996 2.996 0 0 0-2-2.816V26C57 12.215 45.785 1 32 1S7 12.215 7 26v3.184A2.996 2.996 0 0 0 5 32v6.685C2.639 39.811 1 42.215 1 45v2c0 3.86 3.141 7 7 7h1.142c.447 1.72 1.999 3 3.858 3h2c2.206 0 4-1.794 4-4v-7.928c.231.259.474.508.741.737L32 56.317 44.26 45.81a7.8 7.8 0 0 0 .74-.737V53a4 4 0 0 0 3.9 3.99A5.008 5.008 0 0 1 44 61h-5.382l-1.171-2.342A2.983 2.983 0 0 0 34.764 57H28c-1.654 0-3 1.346-3 3s1.346 3 3 3h16c3.519 0 6.432-2.613 6.92-6H51c1.859 0 3.411-1.28 3.858-3H56c3.859 0 7-3.14 7-7v-2c0-2.785-1.639-5.189-4-6.315zM28 61a1.001 1.001 0 0 1 0-2h6.764c.381 0 .724.212.895.553L36.382 61H28zm4-58c12.683 0 23 10.318 23 23v3h-2v-3c0-11.58-9.421-21-21-21s-21 9.42-21 21v3H9v-3C9 13.318 19.317 3 32 3zm17 29v3a3.981 3.981 0 0 0-2.885 1.243 7.87 7.87 0 0 0-5.303-4.062A8.997 8.997 0 0 0 32 25a8.995 8.995 0 0 0-8.813 7.181 7.87 7.87 0 0 0-5.302 4.062A3.981 3.981 0 0 0 15 35v-3a2.996 2.996 0 0 0-2-2.816V26c0-10.477 8.523-19 19-19s19 8.523 19 19v3.184A2.996 2.996 0 0 0 49 32zm-10.294 0h-.281a7.883 7.883 0 0 0-6.279 3.14l-.146.193-.146-.194A7.885 7.885 0 0 0 25.575 32h-.282a6.997 6.997 0 0 1 13.413 0zM3 47v-2c0-2.757 2.243-5 5-5h1v12H8c-2.757 0-5-2.243-5-5zm6.142-9H8c-.34 0-.672.033-1 .08V32c0-.551.448-1 1-1h4c.552 0 1 .449 1 1v3c-1.859 0-3.411 1.28-3.858 3zM17 53c0 1.103-.897 2-2 2h-2c-1.103 0-2-.897-2-2V39c0-1.103.897-2 2-2h2c1.103 0 2 .897 2 2v14zm25.958-8.709L32 53.683l-10.957-9.392A5.841 5.841 0 0 1 19 39.85 5.856 5.856 0 0 1 24.85 34h.726c1.832 0 3.581.875 4.68 2.34L32 38.667l1.745-2.327a5.878 5.878 0 0 1 4.68-2.34h.726a5.848 5.848 0 0 1 3.807 10.291zM53 53c0 1.103-.897 2-2 2h-2c-1.103 0-2-.897-2-2V39c0-1.103.897-2 2-2h2c1.103 0 2 .897 2 2v14zm-2-18v-3c0-.551.448-1 1-1h4c.552 0 1 .449 1 1v6.08a7.026 7.026 0 0 0-1-.08h-1.142c-.447-1.72-1.999-3-3.858-3zm10 12c0 2.757-2.243 5-5 5h-1V40h1c2.757 0 5 2.243 5 5v2z" fill="#ffffff" class="fill-000000"></path><path d="m43.901 28.796 1.326-2.782-5.242-5.242-2.782 1.326a11.236 11.236 0 0 0-.468-.194L35.707 19h-7.414l-1.028 2.904c-.157.062-.313.126-.468.194l-2.782-1.326-5.242 5.242 1.326 2.782c-.068.156-.133.312-.194.468L17 30.293V33h2v-1.293l2.465-.874.158-.452c.135-.386.296-.775.48-1.157l.209-.432-1.126-2.363 3.242-3.244 2.363 1.127.433-.209c.378-.183.768-.345 1.156-.481l.452-.158.875-2.464h4.586l.874 2.464.452.158c.389.136.778.298 1.156.481l.433.209 2.363-1.127 3.242 3.244-1.126 2.363.209.432c.185.382.346.771.48 1.157l.158.452 2.466.874V33h2v-2.707l-2.904-1.029a13.261 13.261 0 0 0-.195-.468zM49 39h2v2h-2zM49 43h2v6h-2zM49 51h2v2h-2zM13 39h2v2h-2zM13 43h2v6h-2zM13 51h2v2h-2z" fill="#ffffff" class="fill-000000"></path></svg>