<svg viewBox="0 0 64 64" xmlns="http://www.w3.org/2000/svg"><path d="M30.3 58.44 32.56 60l1.26.81a2.64 2.64 0 0 0 3.62-.89h0a2.63 2.63 0 0 0-.91-3.61l-2.88-1.61M30.51 25.51a9.6 9.6 0 0 0-8.9-.56h0a9.28 9.28 0 0 1-4.93.73l-4.48-.56L8 23 3 35l3.91 3.33 5.74 7.18" stroke="#ffffff" stroke-linecap="round" stroke-linejoin="round" stroke-width="2px" fill="none" class="stroke-000000"></path><path d="m33.93 54.86 4 2.26a2.75 2.75 0 0 0 3.6-.6 2.65 2.65 0 0 0-.74-3.85h0l1.37.82a2.74 2.74 0 0 0 3.6-.6A2.64 2.64 0 0 0 45 49l1.38.82a2.74 2.74 0 0 0 3.6-.6 2.64 2.64 0 0 0-.76-3.85l-.44-.27-7.17-4.23" stroke="#ffffff" stroke-linecap="round" stroke-linejoin="round" stroke-width="2px" fill="none" class="stroke-000000"></path><circle cx="55.5" cy="56.5" r="2.5" stroke="#ffffff" stroke-linecap="round" stroke-linejoin="round" stroke-width="2px" fill="none" class="stroke-000000"></circle><path d="M58.07 17A1.07 1.07 0 1 1 57 16a1.07 1.07 0 0 1 1.07 1Z" fill="#ffffff" class="fill-000000"></path><path d="M54.19 22.12 62.12 38l-12 7.41L36 38c-1.72-.52-3.22-1.88-3.55-4.91l-7.26.66a3.07 3.07 0 0 1-3.2-2.1h0a3.07 3.07 0 0 1 2-3.91l10.54-3.33a6.71 6.71 0 0 1 5.95.95l.38.27a6.25 6.25 0 0 0 6.4.5h0Z" stroke="#ffffff" stroke-linecap="round" stroke-linejoin="round" stroke-width="2px" fill="none" class="stroke-000000"></path><path d="M42.15 37.45a11.7 11.7 0 0 1-5.23.7L36 38" fill="#ffffff" stroke="#ffffff" stroke-linecap="round" stroke-linejoin="round" stroke-width="2px" class="fill-ffffff stroke-000000"></path><path d="M12.8 49.42h0a2.65 2.65 0 0 1 0-3.74l1.25-1.25a2.65 2.65 0 0 1 3.74 0h0a2.65 2.65 0 0 1 0 3.74l-1.25 1.25a2.65 2.65 0 0 1-3.74 0Z" stroke="#ffffff" stroke-linecap="round" stroke-linejoin="round" stroke-width="2px" fill="none" class="stroke-000000"></path><path d="M16.54 53.15h0a2.64 2.64 0 0 1 0-3.73L19 46.93a2.63 2.63 0 0 1 3.74 0h0a2.64 2.64 0 0 1 0 3.73l-2.49 2.49a2.63 2.63 0 0 1-3.71 0ZM20.28 56.89h0a2.65 2.65 0 0 1 0-3.74L24 49.42a2.65 2.65 0 0 1 3.74 0h0a2.64 2.64 0 0 1 0 3.73L24 56.89a2.64 2.64 0 0 1-3.72 0Z" stroke="#ffffff" stroke-linecap="round" stroke-linejoin="round" stroke-width="2px" fill="none" class="stroke-000000"></path><path d="M24 60.63h0a2.65 2.65 0 0 1 0-3.74l5-5a2.64 2.64 0 0 1 3.73 0h0a2.63 2.63 0 0 1 0 3.74l-5 5a2.65 2.65 0 0 1-3.73 0ZM40.77 52.66l-3.02-1.81M40.46 46.32l4.19 2.5" stroke="#ffffff" stroke-linecap="round" stroke-linejoin="round" stroke-width="2px" fill="none" class="stroke-000000"></path><circle cx="32" cy="11" r="6" stroke="#ffffff" stroke-linecap="round" stroke-linejoin="round" stroke-width="2px" fill="none" class="stroke-000000"></circle><path d="m30 12 1.5 1L34 9" stroke="#ffffff" stroke-linecap="round" stroke-linejoin="round" stroke-width="2px" fill="none" class="stroke-000000"></path></svg>