<svg viewBox="0 0 64 64" xml:space="preserve" xmlns="http://www.w3.org/2000/svg" enable-background="new 0 0 64 64"><path d="m36.564 40.018 2.34-3.542-4.386-4.387-3.541 2.347a13.687 13.687 0 0 0-2.625-1.086l-.847-4.167h-6.207l-.847 4.17c-.9.268-1.776.63-2.617 1.084l-3.542-2.348-4.387 4.387 2.34 3.543c-.452.84-.815 1.718-1.083 2.624l-4.164.846v6.208l4.164.846c.268.906.631 1.785 1.084 2.625l-2.341 3.543 4.387 4.387 3.542-2.35c.839.454 1.715.816 2.617 1.084L21.298 64h6.207l.847-4.163c.92-.275 1.8-.639 2.626-1.086l3.54 2.347 4.387-4.387-2.34-3.542c.452-.84.815-1.719 1.084-2.626l4.162-.846V43.49l-4.162-.846a13.727 13.727 0 0 0-1.085-2.625zm3.252 8.048-3.788.77-.15.614a11.798 11.798 0 0 1-1.34 3.246l-.323.539 2.127 3.217-2.081 2.082-3.22-2.136-.543.327c-.99.6-2.08 1.052-3.245 1.346l-.61.153-.77 3.78H22.93l-.77-3.79-.614-.151c-1.13-.279-2.22-.73-3.239-1.34l-.54-.324-3.217 2.134-2.081-2.08 2.127-3.218-.323-.54a11.78 11.78 0 0 1-1.34-3.245l-.15-.614-3.788-.77v-2.945l3.788-.771.15-.614c.28-1.134.73-2.226 1.34-3.245l.323-.539-2.127-3.217 2.081-2.082 3.218 2.133.54-.322a11.773 11.773 0 0 1 3.237-1.34l.614-.15.771-3.795h2.945l.77 3.784.61.153c1.16.292 2.251.744 3.245 1.345l.541.327 3.22-2.135 2.082 2.082-2.127 3.217.323.54a11.786 11.786 0 0 1 1.34 3.244l.15.614 3.788.77v2.946z" fill="#ffffff" class="fill-000000"></path><path d="M24.405 39.917a6.676 6.676 0 1 0 0 13.353 6.676 6.676 0 0 0 0-13.353zM53.198 18.467l3.804-1.58-1.1-5.952-4.103-.03a13.214 13.214 0 0 0-1.472-2.255l1.607-3.813-4.987-3.39-2.956 2.896a13.184 13.184 0 0 0-2.637-.538L39.814 0l-5.936 1.169-.07 4.12c-.8.42-1.562.925-2.279 1.51l-3.778-1.57-3.416 5.025 2.856 2.938a13.436 13.436 0 0 0-.564 2.665l-3.806 1.582 1.097 5.951 4.104.03c.416.805.909 1.56 1.472 2.255l-1.606 3.813 4.988 3.39 2.954-2.896c.854.268 1.737.448 2.637.538l1.54 3.805 5.937-1.168.07-4.122a13.495 13.495 0 0 0 2.27-1.506l3.78 1.572 3.416-5.025-2.849-2.934c.28-.88.47-1.776.567-2.675zm-.283 5.832-1.587 2.335-3.43-1.427-.468.425a11.501 11.501 0 0 1-2.829 1.877l-.562.265-.063 3.736-2.738.539-1.391-3.439-.634-.034a11.202 11.202 0 0 1-3.297-.673l-.593-.219-2.677 2.625-2.285-1.552 1.456-3.456-.421-.47a11.2 11.2 0 0 1-1.84-2.818l-.264-.578-3.71-.028-.506-2.744 3.45-1.434.04-.62c.071-1.15.308-2.267.704-3.321l.222-.593L26.9 10.03l1.587-2.335 3.423 1.423.468-.42a11.536 11.536 0 0 1 2.838-1.88l.567-.263.063-3.74 2.737-.539 1.392 3.44.634.033c1.138.06 2.247.286 3.297.673l.593.219 2.678-2.625 2.284 1.552-1.456 3.456.42.47a11.221 11.221 0 0 1 1.84 2.819l.265.578 3.71.027.507 2.744-3.453 1.435-.036.624a11.581 11.581 0 0 1-.706 3.331l-.217.59 2.58 2.657z" fill="#ffffff" class="fill-000000"></path><path d="M43.57 11.779c-2.938-1.997-6.957-1.205-8.978 1.768s-1.278 7.003 1.66 9 6.957 1.205 8.978-1.769c2.02-2.973 1.278-7.002-1.66-9z" fill="#ffffff" class="fill-000000"></path></svg>